<?xml version="1.0" encoding="utf-8"?>
<!-- Generator: Adobe Illustrator 17.0.0, SVG Export Plug-In . SVG Version: 6.00 Build 0)  -->
<!DOCTYPE svg PUBLIC "-//W3C//DTD SVG 1.1//EN" "http://www.w3.org/Graphics/SVG/1.1/DTD/svg11.dtd">
<svg version="1.1" id="Layer_1" xmlns:sketch="http://www.bohemiancoding.com/sketch/ns"
	 xmlns="http://www.w3.org/2000/svg" xmlns:xlink="http://www.w3.org/1999/xlink" x="0px" y="0px" width="101px" height="118.5px"
	 viewBox="-0.5 -1.5 101 118.5" enable-background="new -0.5 -1.5 101 118.5" xml:space="preserve">
<g>
	<g id="pizza-33" sketch:type="MSShapeGroup">
		<g id="Rectangle-70">
			<path fill="#D16200" d="M100.5,109.102L50,99.628l-50.5,9.475V-1h101V109.102z M50,98.61l0.092,0.018l49.408,9.27V0h-99v107.897
				L50,98.61z"/>
			<path fill="#EA862E" d="M0-1v109l50-9.381L100,108V-1H0z"/>
			<path fill="#D16200" d="M100.5,108.603L50,99.128l-50.5,9.475V-1.5h101V108.603z M50,98.11l0.092,0.018l49.408,9.27V-0.5h-99
				v107.897L50,98.11z"/>
		</g>
		<g id="Group-2" transform="translate(14.000000, 13.000000)">
			<path id="Fill-1" fill="#FFFFFF" d="M17.5-1C17.224-1,17-0.784,17-0.518v19.035C17,18.784,17.224,19,17.5,19
				c0.276,0,0.5-0.216,0.5-0.482V-0.518C18-0.784,17.776-1,17.5-1"/>
			<path id="Fill-2" fill="#FFFFFF" d="M19.5-1C19.223-1,19-0.784,19-0.518v19.035C19,18.784,19.223,19,19.5,19
				c0.276,0,0.5-0.216,0.5-0.482V-0.518C20-0.784,19.776-1,19.5-1"/>
			<path id="Fill-3" fill="#FFFFFF" d="M1.5-1C1.224-1,1-0.784,1-0.518v19.035C1,18.784,1.224,19,1.5,19C1.776,19,2,18.784,2,18.518
				V-0.518C2-0.784,1.776-1,1.5-1"/>
			<path id="Fill-4" fill="#FFFFFF" d="M12,9c0.116-0.097,0.227-0.2,0.334-0.307c1.022-1.029,1.562-2.479,1.562-4.193
				c0-1.714-0.54-3.164-1.562-4.193C12.227,0.199,12.116,0.097,12,0c1.851,0.661,3,2.307,3,4.5C15,6.693,13.851,8.338,12,9L12,9z
				 M10.735-1H3.467C3.209-1,3-0.784,3-0.518v19.035C3,18.784,3.209,19,3.467,19c0.257,0,0.466-0.216,0.466-0.482V-0.035H9.08
				c2.52,0,4.085,1.866,4.085,4.87c0,3.004-1.565,4.87-4.085,4.87c-0.258,0-0.466,0.216-0.466,0.482
				c0,0.266,0.209,0.482,0.466,0.482h1.655c3.1,0,5.265-2.399,5.265-5.835S13.835-1,10.735-1L10.735-1z"/>
			<path id="Fill-5" fill="#FFFFFF" d="M33.53-1H23.47C23.211-1,23-0.784,23-0.518c0,0.266,0.211,0.482,0.47,0.482h9.269
				l-9.682,18.323c-0.124,0.234-0.039,0.527,0.189,0.653C23.317,18.981,23.395,19,23.47,19c0.167,0,0.329-0.092,0.414-0.252
				L33.943-0.288c0.079-0.15,0.075-0.331-0.009-0.477C33.849-0.911,33.695-1,33.53-1z"/>
			<path id="Fill-7" fill="#FFFFFF" d="M35.754-0.942c-0.228-0.127-0.514-0.04-0.638,0.194l-10.06,19.036
				c-0.079,0.149-0.075,0.33,0.01,0.476C25.151,18.91,25.305,19,25.47,19h10.06c0.259,0,0.47-0.216,0.47-0.482
				c0-0.266-0.211-0.482-0.47-0.482h-9.27l9.683-18.323C36.067-0.522,35.982-0.815,35.754-0.942"/>
			<path id="Fill-8" fill="#FFFFFF" d="M48.934-0.764C48.85-0.911,48.696-1,48.53-1H38.471C38.211-1,38-0.784,38-0.518
				c0,0.266,0.211,0.482,0.471,0.482h9.27l-9.683,18.323c-0.123,0.234-0.039,0.527,0.19,0.653C38.317,18.981,38.394,19,38.47,19
				c0.167,0,0.329-0.092,0.414-0.252L48.943-0.288C49.022-0.437,49.018-0.618,48.934-0.764"/>
			<path id="Fill-9" fill="#FFFFFF" d="M70.943,18.288L60.884-0.748c-0.124-0.234-0.409-0.321-0.638-0.194
				c-0.228,0.127-0.313,0.42-0.189,0.654l10.059,19.036C70.202,18.908,70.363,19,70.53,19c0.076,0,0.152-0.019,0.224-0.059
				C70.982,18.815,71.067,18.522,70.943,18.288"/>
			<path id="Fill-10" fill="#FFFFFF" d="M55,10l4-8l4,8H55L55,10z M59.931,1.196c-0.002-0.004-0.005-0.007-0.006-0.011
				c-0.005-0.01-0.01-0.018-0.016-0.027c-0.003-0.005-0.007-0.01-0.011-0.015c-0.005-0.007-0.011-0.015-0.016-0.023
				c-0.004-0.005-0.009-0.01-0.014-0.016c-0.006-0.007-0.012-0.013-0.017-0.019c-0.006-0.006-0.011-0.011-0.017-0.016
				c-0.006-0.005-0.011-0.01-0.017-0.016c-0.007-0.005-0.014-0.011-0.021-0.016c-0.005-0.004-0.01-0.008-0.016-0.012
				c-0.008-0.005-0.015-0.01-0.024-0.015c-0.004-0.003-0.008-0.005-0.013-0.008C59.741,1.001,59.74,1.001,59.739,1
				c-0.008-0.004-0.016-0.008-0.024-0.012c-0.006-0.003-0.012-0.006-0.018-0.009c-0.007-0.003-0.014-0.005-0.021-0.008
				c-0.008-0.003-0.015-0.006-0.023-0.008c-0.003-0.001-0.006-0.001-0.01-0.002c-0.027-0.008-0.055-0.013-0.082-0.016
				c-0.07-0.006-0.141,0.003-0.209,0.03c-0.003,0.001-0.007,0.003-0.01,0.003c-0.008,0.003-0.015,0.007-0.023,0.011
				C59.312,0.993,59.305,0.996,59.298,1C59.297,1,59.296,1.001,59.295,1.002c-0.005,0.003-0.01,0.006-0.015,0.009
				c-0.007,0.004-0.014,0.009-0.021,0.013c-0.006,0.004-0.013,0.009-0.019,0.014c-0.006,0.005-0.013,0.01-0.019,0.015
				c-0.006,0.005-0.012,0.011-0.018,0.016c-0.005,0.005-0.01,0.01-0.016,0.016c-0.006,0.006-0.012,0.013-0.018,0.019
				c-0.005,0.005-0.009,0.01-0.013,0.015c-0.006,0.008-0.012,0.016-0.018,0.023c-0.003,0.005-0.006,0.01-0.01,0.015
				c-0.006,0.009-0.011,0.018-0.016,0.028c-0.002,0.003-0.005,0.007-0.007,0.011l-8.879,16.84h-8.97l9.661-18.323
				c0.124-0.234,0.039-0.527-0.188-0.654c-0.228-0.127-0.513-0.04-0.636,0.194L40.057,18.288c-0.079,0.149-0.075,0.33,0.009,0.476
				C40.151,18.91,40.304,19,40.469,19h10.037c0.172,0,0.33-0.097,0.412-0.252l3.96-7.508h9.281l3.959,7.508
				C68.203,18.908,68.364,19,68.531,19c0.076,0,0.152-0.019,0.223-0.059c0.228-0.127,0.313-0.419,0.189-0.653L59.931,1.196
				L59.931,1.196z"/>
			<path id="Fill-11" fill="#FFFFFF" d="M1,55.976c0.001,4.627,1.386,8.161,4.116,10.503C7.841,68.815,11.952,70,17.334,70
				c2.601,0,4.958-0.32,7.007-0.953c2.07-0.641,3.834-1.569,5.241-2.758c1.417-1.197,2.52-2.641,3.278-4.291
				c0.757-1.651,1.14-3.497,1.14-5.486c0-2.848-0.805-5.149-2.393-6.84c-0.871-0.925-1.99-1.655-3.325-2.172l-1.015-0.393
				l0.931-0.567c2.711-1.652,4.086-4.284,4.086-7.824c0-1.656-0.349-3.226-1.037-4.668c-0.689-1.45-1.701-2.712-3.007-3.751
				c-1.292-1.029-2.882-1.847-4.727-2.43C21.682,27.292,19.603,27,17.334,27c-4.909,0-8.756,1.223-11.432,3.635
				c-2.699,2.429-4.068,5.983-4.068,10.562v0.349c0,0.304,0.167,0.304,0.23,0.304H8.47c0.421,0,0.421-0.148,0.421-0.319v-0.377
				c0.007-2.677,0.742-4.661,2.184-5.897c1.483-1.271,3.626-1.915,6.37-1.915c2.495,0,4.454,0.578,5.824,1.72
				c1.35,1.118,2.006,2.547,2.006,4.368c0,1.771-0.753,3.111-2.237,3.98c-1.507,0.882-3.838,1.329-6.926,1.329h-2.626
				c-0.072,0-0.11,0.008-0.126,0.013c-0.015,0.03-0.055,0.142-0.055,0.459v5.282c0,0.054,0.003,0.091,0.007,0.114
				c0.042,0.011,0.129,0.025,0.29,0.025h2.735c3.582,0,6.274,0.542,8,1.61c1.64,1.019,2.436,2.586,2.436,4.791
				c0,2.035-0.785,3.601-2.399,4.789c-1.641,1.215-4.085,1.832-7.263,1.832c-6.206,0-9.223-2.605-9.223-7.963v-0.315l0.006-0.038
				c0.007-0.068-0.006-0.205-0.05-0.256c-0.025-0.029-0.096-0.046-0.19-0.046H1.151c-0.046,0-0.071,0.008-0.076,0.013
				C1.048,55.079,0.997,55.196,1,55.445C1.003,55.785,1.001,55.94,1,55.976L1,55.976z M17.334,71c-5.621,0-9.948-1.267-12.86-3.765
				C1.506,64.688,0,60.889,0,55.945l0-0.013c0-0.001,0.003-0.14,0-0.499c-0.005-0.504,0.124-0.893,0.381-1.155
				c0.147-0.15,0.41-0.329,0.828-0.329h6.482c0.524,0,0.827,0.226,0.99,0.415c0.332,0.388,0.318,0.896,0.302,1.06v0.246
				c0,4.75,2.507,6.868,8.131,6.868c2.936,0,5.161-0.545,6.612-1.619c1.353-0.996,1.956-2.202,1.956-3.911
				c0-1.846-0.593-3.038-1.923-3.865c-1.55-0.959-4.046-1.446-7.417-1.446h-2.725c-0.335,0-1.354,0-1.354-1.208v-5.265
				c0-0.381,0-1.54,1.24-1.54h2.616c2.888,0,5.031-0.397,6.37-1.181c1.16-0.68,1.701-1.646,1.701-3.042
				c0-1.516-0.497-2.604-1.613-3.528c-1.172-0.976-2.898-1.471-5.131-1.471c-2.477,0-4.382,0.557-5.662,1.655
				c-1.197,1.026-1.803,2.743-1.803,5.105v0.333c0,0.856-0.566,1.388-1.478,1.388H2.119c-0.459,0-0.746-0.198-0.906-0.364
				c-0.371-0.386-0.383-0.927-0.382-1.028v-0.329c0-4.883,1.483-8.694,4.407-11.326C8.105,27.31,12.175,26,17.334,26
				c2.368,0,4.545,0.307,6.472,0.912c1.963,0.621,3.662,1.497,5.05,2.603c1.43,1.137,2.539,2.522,3.295,4.116
				c0.755,1.582,1.137,3.304,1.137,5.116c0,3.555-1.262,6.294-3.755,8.156c1.084,0.532,2.02,1.212,2.789,2.028
				C34.099,50.823,35,53.365,35,56.487c0,2.138-0.415,4.13-1.235,5.917c-0.822,1.789-2.016,3.353-3.548,4.648
				c-1.512,1.277-3.393,2.27-5.592,2.951C22.484,70.665,20.031,71,17.334,71L17.334,71z"/>
			<path id="Fill-13" fill="#FFFFFF" d="M38,55.976c0.001,4.627,1.386,8.161,4.116,10.503C44.841,68.815,48.951,70,54.334,70
				c2.601,0,4.958-0.32,7.007-0.953c2.07-0.641,3.834-1.569,5.241-2.758c1.417-1.197,2.52-2.641,3.279-4.291
				c0.757-1.652,1.14-3.498,1.14-5.486c0-2.848-0.805-5.149-2.394-6.84c-0.872-0.925-1.99-1.655-3.324-2.172l-1.015-0.393
				l0.931-0.567c2.711-1.652,4.085-4.284,4.085-7.824c0-1.656-0.348-3.226-1.036-4.668c-0.689-1.45-1.7-2.712-3.007-3.751
				c-1.292-1.029-2.883-1.847-4.728-2.43C58.682,27.292,56.603,27,54.334,27c-4.909,0-8.755,1.223-11.432,3.635
				c-2.699,2.429-4.067,5.983-4.067,10.562l0,0.349c0,0.304,0.167,0.304,0.23,0.304h6.407c0.421,0,0.421-0.148,0.421-0.319v-0.377
				c0.008-2.677,0.742-4.661,2.184-5.897c1.483-1.271,3.626-1.915,6.37-1.915c2.494,0,4.454,0.578,5.824,1.72
				c1.35,1.118,2.006,2.547,2.006,4.368c0,1.771-0.752,3.11-2.237,3.98c-1.508,0.882-3.838,1.329-6.926,1.329h-2.626
				c-0.072,0-0.11,0.008-0.126,0.013c-0.015,0.03-0.055,0.142-0.055,0.459v5.282c0,0.054,0.003,0.091,0.006,0.114
				c0.043,0.011,0.129,0.025,0.29,0.025h2.736c3.582,0,6.274,0.542,8,1.61c1.639,1.019,2.436,2.586,2.436,4.791
				c0,2.035-0.784,3.601-2.398,4.789c-1.641,1.215-4.085,1.832-7.263,1.832c-6.206,0-9.223-2.605-9.223-7.963v-0.315l0.006-0.038
				c0.007-0.068-0.005-0.205-0.05-0.256c-0.025-0.029-0.096-0.046-0.19-0.046h-6.505c-0.047,0-0.071,0.008-0.076,0.013
				c-0.027,0.028-0.077,0.145-0.075,0.393C38.004,55.785,38.001,55.94,38,55.976L38,55.976z M54.334,71
				c-5.621,0-9.948-1.267-12.86-3.765C38.506,64.688,37,60.889,37,55.945l0-0.013c0-0.001,0.003-0.14,0-0.499
				c-0.005-0.504,0.123-0.893,0.381-1.155c0.147-0.15,0.41-0.329,0.828-0.329h6.481c0.524,0,0.828,0.226,0.99,0.415
				c0.332,0.388,0.318,0.896,0.302,1.06v0.246c0,4.75,2.508,6.868,8.131,6.868c2.937,0,5.161-0.545,6.612-1.619
				c1.353-0.996,1.956-2.202,1.956-3.911c0-1.846-0.593-3.038-1.923-3.865c-1.549-0.959-4.045-1.446-7.416-1.446h-2.726
				c-0.335,0-1.354,0-1.354-1.208v-5.265c0-0.381,0-1.54,1.24-1.54h2.617c2.888,0,5.031-0.397,6.37-1.181
				c1.16-0.68,1.701-1.647,1.701-3.042c0-1.516-0.498-2.604-1.613-3.528c-1.172-0.976-2.898-1.471-5.131-1.471
				c-2.477,0-4.382,0.557-5.662,1.655c-1.197,1.026-1.803,2.743-1.803,5.105v0.333c0,0.856-0.566,1.388-1.478,1.388h-6.384
				c-0.459,0-0.746-0.198-0.906-0.364c-0.371-0.386-0.383-0.927-0.382-1.028v-0.329c0-4.883,1.483-8.694,4.407-11.326
				C45.104,27.31,49.174,26,54.334,26c2.368,0,4.545,0.307,6.472,0.912c1.963,0.621,3.662,1.497,5.05,2.603
				c1.43,1.137,2.539,2.523,3.295,4.116c0.755,1.582,1.137,3.304,1.137,5.116c0,3.555-1.262,6.294-3.755,8.156
				c1.084,0.532,2.019,1.212,2.79,2.028C71.1,50.823,72,53.365,72,56.487c0,2.138-0.415,4.129-1.234,5.917
				c-0.822,1.789-2.016,3.353-3.548,4.648c-1.511,1.277-3.392,2.27-5.592,2.951C59.484,70.665,57.031,71,54.334,71L54.334,71z"/>
			<path id="Fill-14" fill="#FFFFFF" d="M68.792-1L69.5,0.432L70.213-1H71v2h-0.508v-1.614L69.725,1h-0.443l-0.774-1.614V1H68v-2
				H68.792L68.792-1z M66-0.666V-1h2v0.334h-0.767V1h-0.466v-1.666H66L66-0.666z"/>
		</g>
	</g>
</g>
</svg>
